<?xml version="1.0" encoding="UTF-8"?>
<!DOCTYPE svg PUBLIC "-//W3C//DTD SVG 1.1//EN" "http://www.w3.org/Graphics/SVG/1.1/DTD/svg11.dtd">
<svg xmlns="http://www.w3.org/2000/svg" version="1.1" width="300px" height="79px" style="shape-rendering:geometricPrecision; text-rendering:geometricPrecision; image-rendering:optimizeQuality; fill-rule:evenodd; clip-rule:evenodd" xmlns:xlink="http://www.w3.org/1999/xlink">
<g><path style="opacity:0.853" fill="#000000" d="M 23.5,7.5 C 31.1667,7.5 38.8333,7.5 46.5,7.5C 46.5,8.83333 46.5,10.1667 46.5,11.5C 51.1667,11.5 55.8333,11.5 60.5,11.5C 60.5,31.1667 60.5,50.8333 60.5,70.5C 42.8333,70.5 25.1667,70.5 7.5,70.5C 7.5,50.8333 7.5,31.1667 7.5,11.5C 12.5,11.5 17.5,11.5 22.5,11.5C 22.4326,10.0413 22.7659,8.70792 23.5,7.5 Z M 26.5,11.5 C 31.8333,11.5 37.1667,11.5 42.5,11.5C 42.5,12.5 42.5,13.5 42.5,14.5C 37.1667,14.5 31.8333,14.5 26.5,14.5C 26.5,13.5 26.5,12.5 26.5,11.5 Z M 11.5,15.5 C 15.1667,15.5 18.8333,15.5 22.5,15.5C 22.5,16.5 22.5,17.5 22.5,18.5C 30.5,18.5 38.5,18.5 46.5,18.5C 46.5,17.5 46.5,16.5 46.5,15.5C 49.8333,15.5 53.1667,15.5 56.5,15.5C 56.5,32.5 56.5,49.5 56.5,66.5C 41.5,66.5 26.5,66.5 11.5,66.5C 11.5,49.5 11.5,32.5 11.5,15.5 Z"/></g>
<g><path style="opacity:0.784" fill="#0060ff" d="M 255.5,21.5 C 256.833,21.5 258.167,21.5 259.5,21.5C 259.248,33.8637 259.582,46.197 260.5,58.5C 258.019,58.6766 256.186,57.6766 255,55.5C 248.769,60.7421 242.769,60.4088 237,54.5C 233.265,47.4329 233.765,40.7662 238.5,34.5C 244.234,30.3405 249.734,30.6738 255,35.5C 255.499,30.8452 255.666,26.1785 255.5,21.5 Z M 244.5,35.5 C 255.599,36.9303 258.599,42.7636 253.5,53C 242.74,57.0138 237.907,53.1805 239,41.5C 240.36,38.9774 242.193,36.9774 244.5,35.5 Z"/></g>
<g><path style="opacity:0.769" fill="#0060ff" d="M 86.5,22.5 C 99.0447,22.0454 106.045,28.0454 107.5,40.5C 107.464,45.1079 106.13,49.2746 103.5,53C 104.289,54.6255 105.289,56.1255 106.5,57.5C 103.772,58.9402 101.605,58.2735 100,55.5C 85.1569,61.654 76.3236,56.654 73.5,40.5C 74.0677,31.6225 78.4011,25.6225 86.5,22.5 Z M 87.5,26.5 C 98.3922,26.8938 103.559,32.5605 103,43.5C 102.527,45.779 101.527,47.779 100,49.5C 93.2352,46.4061 92.4018,47.2395 97.5,52C 89.0542,56.8169 82.8876,54.6502 79,45.5C 76.9962,36.8505 79.8296,30.5171 87.5,26.5 Z"/></g>
<g><path style="opacity:0.801" fill="#005fff" d="M 178.5,22.5 C 188.5,22.5 198.5,22.5 208.5,22.5C 208.5,23.8333 208.5,25.1667 208.5,26.5C 204.167,26.5 199.833,26.5 195.5,26.5C 195.5,37.1667 195.5,47.8333 195.5,58.5C 194.167,58.5 192.833,58.5 191.5,58.5C 191.5,47.8333 191.5,37.1667 191.5,26.5C 187.167,26.5 182.833,26.5 178.5,26.5C 178.5,25.1667 178.5,23.8333 178.5,22.5 Z"/></g>
<g><path style="opacity:0.802" fill="#0060ff" d="M 143.5,23.5 C 144.833,23.5 146.167,23.5 147.5,23.5C 147.5,26.5 147.5,29.5 147.5,32.5C 149.5,32.5 151.5,32.5 153.5,32.5C 153.5,33.5 153.5,34.5 153.5,35.5C 151.5,35.5 149.5,35.5 147.5,35.5C 147.5,41.8333 147.5,48.1667 147.5,54.5C 149.792,54.7564 151.959,54.4231 154,53.5C 155.92,57.3983 154.42,59.065 149.5,58.5C 147.307,58.6738 145.473,58.0071 144,56.5C 143.5,49.5079 143.334,42.5079 143.5,35.5C 142.167,35.5 140.833,35.5 139.5,35.5C 139.5,34.5 139.5,33.5 139.5,32.5C 140.833,32.5 142.167,32.5 143.5,32.5C 143.5,29.5 143.5,26.5 143.5,23.5 Z"/></g>
<g><path style="opacity:0.762" fill="#000000" d="M 29.5,25.5 C 31.1958,25.6854 32.5291,26.5187 33.5,28C 29.6667,31.8333 25.8333,35.6667 22,39.5C 19.3167,36.9841 16.8167,34.3174 14.5,31.5C 15.1449,30.354 15.9783,29.354 17,28.5C 18.6667,30.1667 20.3333,31.8333 22,33.5C 24.705,30.9638 27.205,28.2971 29.5,25.5 Z"/></g>
<g><path style="opacity:0.838" fill="#000000" d="M 36.5,27.5 C 42.1667,27.5 47.8333,27.5 53.5,27.5C 53.5,28.8333 53.5,30.1667 53.5,31.5C 47.8333,31.5 42.1667,31.5 36.5,31.5C 36.5,30.1667 36.5,28.8333 36.5,27.5 Z"/></g>
<g><path style="opacity:0.757" fill="#0060ff" d="M 165.5,31.5 C 176.547,30.5525 182.214,35.5525 182.5,46.5C 175.137,46.1694 167.803,46.5027 160.5,47.5C 163.869,56.115 169.202,57.615 176.5,52C 177.793,51.51 179.127,51.3433 180.5,51.5C 180.607,53.9032 179.607,55.7365 177.5,57C 168.588,61.0915 161.755,58.9248 157,50.5C 154.996,41.8505 157.83,35.5171 165.5,31.5 Z M 165.5,35.5 C 171.948,33.9543 176.281,36.2876 178.5,42.5C 172.5,43.8333 166.5,43.8333 160.5,42.5C 161.804,39.8699 163.47,37.5366 165.5,35.5 Z"/></g>
<g><path style="opacity:0.772" fill="#0060ff" d="M 214.5,31.5 C 227.122,31.6301 232.289,37.9635 230,50.5C 228.016,56.1469 224.016,59.1469 218,59.5C 206.51,56.8578 202.51,49.8578 206,38.5C 207.851,34.8432 210.684,32.5099 214.5,31.5 Z M 214.5,35.5 C 225.95,36.3923 229.116,42.059 224,52.5C 215.882,57.1967 210.716,54.8634 208.5,45.5C 209.005,41.1386 211.005,37.8053 214.5,35.5 Z"/></g>
<g><path style="opacity:0.755" fill="#0060ff" d="M 274.5,31.5 C 289.095,32.3512 293.928,39.6845 289,53.5C 281.667,61.5 274.333,61.5 267,53.5C 262.647,43.7241 265.147,36.3908 274.5,31.5 Z M 275.5,35.5 C 285.549,36.5858 288.716,41.9191 285,51.5C 276.733,57.7878 271.566,55.7878 269.5,45.5C 269.474,40.8771 271.474,37.5437 275.5,35.5 Z"/></g>
<g><path style="opacity:0.788" fill="#0060ff" d="M 112.5,32.5 C 113.833,32.5 115.167,32.5 116.5,32.5C 116.334,38.5092 116.501,44.5092 117,50.5C 118.709,55.3909 121.875,56.5576 126.5,54C 128.378,52.4571 129.878,50.6238 131,48.5C 131.499,43.1771 131.666,37.8437 131.5,32.5C 132.833,32.5 134.167,32.5 135.5,32.5C 135.289,41.2 135.623,49.8667 136.5,58.5C 133.14,59.2096 131.307,57.8762 131,54.5C 125.475,60.1547 119.808,60.488 114,55.5C 112.568,47.9458 112.068,40.2792 112.5,32.5 Z"/></g>
<g><path style="opacity:0.78" fill="#000000" d="M 36.5,35.5 C 39.8333,35.5 43.1667,35.5 46.5,35.5C 46.5,36.8333 46.5,38.1667 46.5,39.5C 43.1667,39.5 39.8333,39.5 36.5,39.5C 36.5,38.1667 36.5,36.8333 36.5,35.5 Z"/></g>
<g><path style="opacity:0.743" fill="#000000" d="M 29.5,46.5 C 31.1958,46.6854 32.5291,47.5187 33.5,49C 29.6667,52.8333 25.8333,56.6667 22,60.5C 19.3167,57.9841 16.8167,55.3174 14.5,52.5C 15.1449,51.354 15.9783,50.354 17,49.5C 18.6667,51.1667 20.3333,52.8333 22,54.5C 24.705,51.9638 27.205,49.2971 29.5,46.5 Z"/></g>
<g><path style="opacity:0.779" fill="#000000" d="M 36.5,48.5 C 42.1667,48.5 47.8333,48.5 53.5,48.5C 53.5,49.8333 53.5,51.1667 53.5,52.5C 47.8333,52.5 42.1667,52.5 36.5,52.5C 36.5,51.1667 36.5,49.8333 36.5,48.5 Z"/></g>
<g><path style="opacity:0.837" fill="#000000" d="M 36.5,56.5 C 39.8333,56.5 43.1667,56.5 46.5,56.5C 46.5,57.8333 46.5,59.1667 46.5,60.5C 43.1667,60.5 39.8333,60.5 36.5,60.5C 36.5,59.1667 36.5,57.8333 36.5,56.5 Z"/></g>
</svg>
